<svg width="120" height="120" viewBox="0 0 120 120" fill="none" xmlns="http://www.w3.org/2000/svg">
<rect width="120" height="120" rx="20" fill="#4285F4" fill-opacity="0.1"/>
<path d="M39.8825 90.8708C36.2484 89.548 33.2066 87.5837 30.7099 84.9579C28.2198 82.3455 26.3355 79.0316 25.0703 74.9828C23.7984 70.9272 23.1523 66.1301 23.1523 60.598C23.1523 55.0324 23.7984 50.2019 25.0636 46.1129C26.3288 42.024 28.2131 38.6767 30.7031 36.0309C33.2066 33.3717 36.2484 31.3807 39.8825 30.0445C43.1599 28.8351 46.9286 28.167 51.1952 28.0468C50.4953 28.294 49.8089 28.5545 49.1494 28.8485C45.9864 30.2315 43.2339 32.1491 40.9324 34.5677C38.2876 37.3404 36.3023 40.8013 34.9631 44.9237C33.6238 49.0393 32.9239 53.8098 32.8432 59.235C32.8365 59.5757 32.8365 59.9298 32.8365 60.2973C32.8365 60.6581 32.8432 61.0122 32.8432 61.3596V61.3663C32.897 64.1791 33.1729 66.7247 33.6575 68.9963C33.8392 69.8849 34.0411 70.7401 34.2834 71.5419C35.0438 74.034 36.1206 76.1186 37.554 77.7689C39.1355 79.5928 41.215 80.9558 43.7319 81.8444C44.8962 82.252 46.1614 82.566 47.5073 82.7865C47.6083 82.7999 47.7092 82.8199 47.8034 82.8333C47.864 82.8399 47.9246 82.8466 47.9784 82.86C49.3849 83.0604 50.8722 83.1606 52.4672 83.1673H55.6571C56.0474 83.1673 56.4377 83.1606 56.8146 83.1473C57.9788 83.1206 59.0825 83.0203 60.1323 82.8734H60.1391C62.3801 82.5593 64.3788 81.9847 66.1286 81.1295C67.885 80.2743 69.3858 79.1318 70.6038 77.7288C72.2122 75.8914 73.3765 73.5196 74.1437 70.6466C74.9109 67.7737 75.2877 64.3929 75.2877 60.5044C75.2877 56.6226 74.9176 53.2419 74.1571 50.3622C73.3967 47.4893 72.2459 45.1041 70.6711 43.24C69.4598 41.8236 67.9658 40.6744 66.2026 39.8125C66.1353 39.7858 66.068 39.759 66.0007 39.7256H67.4207C68.982 39.7256 70.4289 39.8325 71.7614 40.0196C71.795 40.0263 71.8354 40.0263 71.8758 40.033C71.9632 40.0463 72.0575 40.0664 72.145 40.0797C72.367 40.1131 72.5757 40.1532 72.791 40.1933C72.9189 40.22 73.04 40.2401 73.1679 40.2668C73.2015 40.2735 73.2352 40.2869 73.2756 40.2935L73.3496 40.3069C73.4169 40.3203 73.4774 40.3336 73.5313 40.3537C73.6524 40.3804 73.7735 40.4071 73.888 40.4405C74.2043 40.5207 74.5138 40.6076 74.8167 40.7011C74.8772 40.7211 74.9311 40.7345 74.9916 40.7545C75.1935 40.8214 75.3954 40.8882 75.5906 40.955C77.8114 41.7634 79.5611 42.9527 80.9071 44.5295C82.1857 46.0328 83.2154 48.0438 83.9355 50.556C84.097 51.1172 84.245 51.7185 84.3729 52.3332C84.7161 54.077 84.9382 56.0213 85.019 58.1793C85.0257 58.3998 85.0324 58.6069 85.0392 58.8007V58.8074C85.0459 58.9343 85.0459 59.088 85.0459 59.2617C85.0459 59.4421 85.0392 59.6358 85.0392 59.9566C85.0392 60.3173 85.0459 60.8318 85.0459 61.2794V61.3663C85.0459 61.54 85.0459 61.7004 85.0392 61.834V61.8407C85.0324 62.0411 85.0257 62.2482 85.019 62.4754C84.8642 67.493 84.1441 71.8693 82.8856 75.5974C81.6272 79.3256 79.8303 82.4057 77.5018 84.8844C75.3752 87.1427 72.8583 88.9132 69.9241 90.2161" fill="#7188FF" fill-opacity="0.9"/>
<path d="M70.7575 92C73.9205 90.5969 76.6662 88.6594 78.9746 86.2073C81.5251 83.5081 83.4633 80.1541 84.7891 76.1988C86.1283 72.2435 86.8618 67.6801 87.0301 62.5155V62.5088C87.0368 62.3151 87.0435 62.1013 87.0503 61.8674C87.0503 61.8607 87.0503 61.8607 87.0503 61.8607C87.057 61.6737 87.057 61.5066 87.057 61.3596V61.2527C87.057 60.7917 87.0503 60.2706 87.0503 59.9298C87.0503 59.6292 87.057 59.4622 87.057 59.2484V59.2216C87.057 59.0813 87.057 58.9143 87.0503 58.7272V58.7205C87.0503 58.7205 87.0503 58.7205 87.0503 58.7139C87.0435 58.4867 87.0368 58.2796 87.0301 58.0858V58.0724C86.9022 54.7385 86.4648 51.8321 85.711 49.34C84.9573 46.8479 83.8738 44.7633 82.4404 43.1131C80.8589 41.2891 78.7794 39.9328 76.2625 39.0375C73.7523 38.1489 70.8046 37.7213 67.4263 37.7146H64.2364C62.6818 37.7146 61.2147 37.8148 59.8486 38.0086H59.8419C57.6009 38.3226 55.6021 38.8972 53.8524 39.7524C52.1027 40.6076 50.5952 41.7501 49.3771 43.1531C47.7754 44.9905 46.6044 47.3624 45.8373 50.2353C45.0701 53.1083 44.6932 56.489 44.6932 60.3775C44.6932 64.2593 45.0633 67.64 45.8238 70.5197C46.5843 73.3926 47.735 75.7778 49.3165 77.6419C50.5279 79.0584 52.0219 80.2075 53.7851 81.0694C53.8524 81.0961 53.9197 81.1229 53.987 81.1563H52.4795C49.3165 81.1563 46.6179 80.7354 44.3971 79.9269C42.1763 79.1185 40.4265 77.9292 39.0806 76.3524C37.8019 74.8492 36.7655 72.8381 36.0455 70.3259C35.3254 67.8138 34.9081 64.7938 34.8408 61.2995C34.8341 60.9521 34.8341 60.6113 34.8341 60.2706C34.8341 59.9232 34.8408 59.5757 34.8408 59.235C34.9149 53.9635 35.6013 49.3868 36.8665 45.505C38.1317 41.6231 39.9756 38.4362 42.3849 35.904C44.5115 33.6724 47.0284 31.9219 49.9626 30.6324C52.8968 29.3429 56.2549 28.5211 60.0438 28.1804C61.3897 28.0601 62.7895 28 64.2431 28H67.433C72.2583 28 76.4845 28.6681 80.1119 29.991C83.7459 31.3139 86.7878 33.2782 89.2913 35.904C90.5295 37.2135 91.6265 38.6901 92.5687 40.3537C93.5108 42.0173 94.3049 43.8547 94.9375 45.8791C96.2027 49.9346 96.8488 54.7251 96.8488 60.2639C96.8488 65.8294 96.2027 70.66 94.9375 74.7423C93.6723 78.8312 91.788 82.1785 89.298 84.8243C86.7945 87.4835 83.7527 89.4745 80.1186 90.8107" fill="#6461DA"/>
</svg>
