<svg width="120" height="120" viewBox="0 0 120 120" fill="none" xmlns="http://www.w3.org/2000/svg">
<rect width="120" height="120" rx="10" fill="#41A5EE" fill-opacity="0.1"/>
<path d="M53.0816 50.6403L57.352 54.8794C58.8158 56.337 61.1833 56.337 62.6471 54.8794L66.1538 51.3978L66.8921 50.6149L87.4106 30.0941C88.1871 29.3176 87.6397 28 86.5451 28H79.3343C77.0177 28 74.7902 28.9229 73.1546 30.5587L59.9996 43.7216L55.6527 39.3743C54.0489 37.7703 51.8723 36.8664 49.6066 36.8664H39.3601L53.107 50.6149L53.0816 50.6403Z" fill="#FF0C5D"/>
<path d="M40.7354 92.0001C43.0074 92.0001 45.184 91.0962 46.7878 89.4923L60.0001 76.2785L64.2897 80.5685C65.9317 82.2107 68.1592 83.1336 70.4822 83.1336H80.6396L66.8927 69.3852L66.9181 69.3597L62.6541 65.1207C61.1839 63.6631 58.8164 63.6631 57.3526 65.1207L53.8459 68.6023L53.1076 69.3852L32.5763 89.9123C31.8063 90.6825 32.3536 92.0001 33.4419 92.0001" fill="#FFC005"/>
<path d="M43.7198 60.0032L39.4048 64.3186C37.7819 65.9417 36.8655 68.1504 36.8655 70.4481V80.6449L50.6124 66.8965L50.6378 66.9219L54.8892 62.6383C56.3466 61.168 56.3466 58.7938 54.8765 57.3299L30.0748 32.5636C29.3047 31.7998 28 32.3409 28 33.4229V40.6727C28 43.0022 28.9037 45.1854 30.5521 46.834L43.7198 60.0032Z" fill="#221ECA"/>
<path d="M89.4797 73.1978L76.3502 60.0032L80.7097 55.6241C82.2881 54.0392 83.1727 51.8878 83.1727 49.6537V39.3488L69.4831 53.1035L69.4576 53.0781L65.2699 57.3172C63.8252 58.7747 63.8188 61.1234 65.2508 62.5937L69.464 66.9219L69.4894 66.8965L89.9698 87.4745C90.7208 88.2256 92 87.6973 92 86.6344V79.2955C91.9936 76.9914 91.1026 74.8273 89.4797 73.1978Z" fill="#221ECA"/>
</svg>
