<svg width="120" height="120" viewBox="0 0 120 120" fill="none" xmlns="http://www.w3.org/2000/svg">
<rect width="120" height="120" rx="15" fill="#F35325" fill-opacity="0.1"/>
<path d="M28.9934 57.6884C28.9864 57.6953 28.9724 57.6953 28.9655 57.6953V57.7023C28.9655 57.7093 28.9724 57.7093 28.9724 57.7093C29.2031 57.7582 29.4337 57.8072 29.6643 57.8491C29.4337 57.7932 29.217 57.7373 28.9934 57.6884ZM28.9934 57.6884C28.9864 57.6953 28.9724 57.6953 28.9655 57.6953V57.7023C28.9655 57.7093 28.9724 57.7093 28.9724 57.7093C29.2031 57.7582 29.4337 57.8072 29.6643 57.8491C29.4337 57.7932 29.217 57.7373 28.9934 57.6884ZM28.9934 57.6884C28.9864 57.6953 28.9724 57.6953 28.9655 57.6953V57.7023C28.9655 57.7093 28.9724 57.7093 28.9724 57.7093C29.2031 57.7582 29.4337 57.8072 29.6643 57.8491C29.4337 57.7932 29.217 57.7373 28.9934 57.6884ZM28.9934 57.6884C28.9864 57.6953 28.9724 57.6953 28.9655 57.6953V57.7023C28.9655 57.7093 28.9724 57.7093 28.9724 57.7093C29.2031 57.7582 29.4337 57.8072 29.6643 57.8491C29.4337 57.7932 29.217 57.7373 28.9934 57.6884ZM28.9934 57.6884C28.9864 57.6953 28.9724 57.6953 28.9655 57.6953V57.7023C28.9655 57.7093 28.9724 57.7093 28.9724 57.7093C29.2031 57.7582 29.4337 57.8072 29.6643 57.8491C29.4337 57.7932 29.217 57.7373 28.9934 57.6884Z" fill="#FFC005"/>
<path d="M58.6498 37.9729C58.6498 41.0689 58.3213 44.0741 57.6992 46.9324C57.0841 49.7838 56.1755 52.4955 55.0292 55.0254C52.52 56.1645 49.8291 57.0661 47.0053 57.6811C44.1186 58.3101 41.0922 58.6455 37.9679 58.6455C35.1162 58.6455 32.3344 58.366 29.6714 57.8348C29.6644 57.8348 29.6574 57.8279 29.6574 57.8279C29.4337 57.7789 29.2171 57.723 28.9934 57.6741C29.2171 57.6252 29.4337 57.5763 29.6574 57.5204C29.4268 57.5623 29.1961 57.6112 28.9655 57.6601C30.594 50.1752 34.2006 43.6477 39.0792 38.9443C43.7762 34.1221 50.2624 30.5579 57.6922 28.9435V28.9505C57.6992 28.9644 57.6992 28.9784 57.6992 28.9924C58.3213 31.8718 58.6498 34.8769 58.6498 37.9729Z" fill="#FF733B"/>
<path d="M29.6548 57.8419C29.4242 57.8 29.1935 57.751 28.9629 57.7021C28.9629 57.7021 28.9559 57.7021 28.9559 57.6951V57.6881C28.9629 57.6881 28.9769 57.6881 28.9839 57.6812C29.2145 57.7371 29.4312 57.793 29.6548 57.8419Z" fill="#FFC005"/>
<path d="M57.6898 28.9575C54.8101 28.3355 51.7977 28 48.6874 28C42.5087 28 36.6934 29.3139 31.626 31.6202C29.3195 36.687 28.0055 42.5016 28.0055 48.6796C28.0055 51.7896 28.341 54.8087 28.9631 57.6811C28.9631 57.6741 28.97 57.6741 28.97 57.6741C30.5986 50.1892 34.2052 43.6617 39.0838 38.9583C43.7807 34.1361 50.267 30.5718 57.6968 28.9575H57.6898Z" fill="#7188FF"/>
<path d="M62.2864 28.9852C62.2794 28.9782 62.2794 28.9643 62.2794 28.9573H62.2724C62.2654 28.9573 62.2654 28.9643 62.2654 28.9643C62.2165 29.1949 62.1675 29.4255 62.1256 29.6561C62.1885 29.4325 62.2374 29.2089 62.2864 28.9852ZM62.2864 28.9852C62.2794 28.9782 62.2794 28.9643 62.2794 28.9573H62.2724C62.2654 28.9573 62.2654 28.9643 62.2654 28.9643C62.2165 29.1949 62.1675 29.4255 62.1256 29.6561C62.1885 29.4325 62.2374 29.2089 62.2864 28.9852ZM62.2864 28.9852C62.2794 28.9782 62.2794 28.9643 62.2794 28.9573H62.2724C62.2654 28.9573 62.2654 28.9643 62.2654 28.9643C62.2165 29.1949 62.1675 29.4255 62.1256 29.6561C62.1885 29.4325 62.2374 29.2089 62.2864 28.9852ZM62.2864 28.9852C62.2794 28.9782 62.2794 28.9643 62.2794 28.9573H62.2724C62.2654 28.9573 62.2654 28.9643 62.2654 28.9643C62.2165 29.1949 62.1675 29.4255 62.1256 29.6561C62.1885 29.4325 62.2374 29.2089 62.2864 28.9852ZM62.2864 28.9852C62.2794 28.9782 62.2794 28.9643 62.2794 28.9573H62.2724C62.2654 28.9573 62.2654 28.9643 62.2654 28.9643C62.2165 29.1949 62.1675 29.4255 62.1256 29.6561C62.1885 29.4325 62.2374 29.2089 62.2864 28.9852Z" fill="#FFC005"/>
<path d="M82.0115 58.6523C78.9152 58.6523 75.9097 58.3239 73.044 57.7019C70.1853 57.0869 67.4734 56.1783 64.9432 55.0252C63.8039 52.5162 62.9023 49.8256 62.2872 46.9952C61.6581 44.1088 61.3226 41.0757 61.3226 37.9587C61.3226 35.1004 61.6022 32.3258 62.1334 29.6631C62.1334 29.6561 62.1404 29.6492 62.1404 29.6492C62.1893 29.4255 62.2452 29.2089 62.2942 28.9852C62.3431 29.2089 62.392 29.4255 62.4479 29.6492C62.406 29.4185 62.3571 29.1879 62.3082 28.9573C69.8009 30.5856 76.329 34.1988 81.033 39.07C85.8557 43.7734 89.4203 50.2519 91.0349 57.6879H91.0279C91.0139 57.6949 91 57.6949 90.986 57.6949C88.1203 58.3239 85.1148 58.6523 82.0115 58.6523Z" fill="#FF733B"/>
<path d="M62.1407 29.6493C62.1827 29.4187 62.2316 29.1881 62.2805 28.9574C62.2805 28.9574 62.2805 28.9504 62.2875 28.9504H62.2945C62.2945 28.9574 62.2945 28.9714 62.3015 28.9784C62.2386 29.209 62.1897 29.4327 62.1407 29.6493Z" fill="#FFC005"/>
<path d="M91.0423 57.6951C91.6643 54.8227 91.9998 51.8036 91.9998 48.6936C91.9998 42.5086 90.6858 36.694 88.3723 31.6271C83.2979 29.3139 77.4897 28 71.304 28C68.1937 28 65.1742 28.3355 62.2946 28.9575C62.3015 28.9575 62.3015 28.9644 62.3015 28.9644C69.7943 30.5928 76.3224 34.206 81.0264 39.0771C85.8491 43.7805 89.4137 50.2591 91.0283 57.6951H91.0423C91.0353 57.6951 91.0423 57.6951 91.0423 57.6951Z" fill="#7188FF"/>
<path d="M90.996 62.2904C91.003 62.2834 91.017 62.2834 91.0239 62.2834V62.2764C91.0239 62.2694 91.017 62.2694 91.017 62.2694C90.7863 62.2205 90.5557 62.1716 90.3251 62.1296C90.5557 62.1925 90.7793 62.2415 90.996 62.2904ZM90.996 62.2904C91.003 62.2834 91.017 62.2834 91.0239 62.2834V62.2764C91.0239 62.2694 91.017 62.2694 91.017 62.2694C90.7863 62.2205 90.5557 62.1716 90.3251 62.1296C90.5557 62.1925 90.7793 62.2415 90.996 62.2904ZM90.996 62.2904C91.003 62.2834 91.017 62.2834 91.0239 62.2834V62.2764C91.0239 62.2694 91.017 62.2694 91.017 62.2694C90.7863 62.2205 90.5557 62.1716 90.3251 62.1296C90.5557 62.1925 90.7793 62.2415 90.996 62.2904ZM90.996 62.2904C91.003 62.2834 91.017 62.2834 91.0239 62.2834V62.2764C91.0239 62.2694 91.017 62.2694 91.017 62.2694C90.7863 62.2205 90.5557 62.1716 90.3251 62.1296C90.5557 62.1925 90.7793 62.2415 90.996 62.2904ZM90.996 62.2904C91.003 62.2834 91.017 62.2834 91.0239 62.2834V62.2764C91.0239 62.2694 91.017 62.2694 91.017 62.2694C90.7863 62.2205 90.5557 62.1716 90.3251 62.1296C90.5557 62.1925 90.7793 62.2415 90.996 62.2904Z" fill="#FFC005"/>
<path d="M61.3405 82.0055C61.3405 78.9095 61.669 75.9044 62.291 73.046C62.9061 70.1946 63.8147 67.483 64.961 64.953C67.4702 63.8139 70.1612 62.9123 72.9849 62.2973C75.8716 61.6683 78.898 61.3329 82.0223 61.3329C84.874 61.3329 87.6558 61.6124 90.3188 62.1436C90.3258 62.1436 90.3328 62.1506 90.3328 62.1506C90.5565 62.1995 90.7731 62.2554 90.9968 62.3043C90.7731 62.3532 90.5565 62.4022 90.3328 62.4581C90.5635 62.4161 90.7941 62.3672 91.0248 62.3183C89.3962 69.8032 85.7896 76.3307 80.911 81.0341C76.2141 85.8563 69.7278 89.4205 62.298 91.0349V91.0279C62.291 91.014 62.291 91 62.291 90.986C61.669 88.1136 61.3405 85.1015 61.3405 82.0055Z" fill="#FF733B"/>
<path d="M90.3346 62.1434C90.5652 62.1854 90.7958 62.2343 91.0265 62.2832C91.0265 62.2832 91.0335 62.2832 91.0335 62.2902V62.2972C91.0265 62.2972 91.0125 62.2972 91.0055 62.3042C90.7819 62.2413 90.5582 62.1924 90.3346 62.1434Z" fill="#FFC005"/>
<path d="M62.3048 91.0281C65.1775 91.6501 68.197 91.9855 71.3073 91.9855C77.486 91.9855 83.3012 90.6716 88.3686 88.3654C90.6751 83.2985 91.9892 77.4839 91.9892 71.3059C91.9892 68.1959 91.6537 65.1768 91.0316 62.3044C91.0316 62.3114 91.0246 62.3114 91.0246 62.3114C89.3961 69.7963 85.7895 76.3238 80.9108 81.0272C76.2139 85.8494 69.7277 89.4137 62.2979 91.0281H62.3048C62.3048 91.0211 62.3048 91.0281 62.3048 91.0281Z" fill="#7188FF"/>
<path d="M57.7058 90.9931C57.7128 91 57.7128 91.014 57.7128 91.021H57.7198C57.7268 91.021 57.7268 91.014 57.7268 91.014C57.7757 90.7834 57.8246 90.5528 57.8666 90.3221C57.8037 90.5528 57.7547 90.7764 57.7058 90.9931ZM57.7058 90.9931C57.7128 91 57.7128 91.014 57.7128 91.021H57.7198C57.7268 91.021 57.7268 91.014 57.7268 91.014C57.7757 90.7834 57.8246 90.5528 57.8666 90.3221C57.8037 90.5528 57.7547 90.7764 57.7058 90.9931ZM57.7058 90.9931C57.7128 91 57.7128 91.014 57.7128 91.021H57.7198C57.7268 91.021 57.7268 91.014 57.7268 91.014C57.7757 90.7834 57.8246 90.5528 57.8666 90.3221C57.8037 90.5528 57.7547 90.7764 57.7058 90.9931ZM57.7058 90.9931C57.7128 91 57.7128 91.014 57.7128 91.021H57.7198C57.7268 91.021 57.7268 91.014 57.7268 91.014C57.7757 90.7834 57.8246 90.5528 57.8666 90.3221C57.8037 90.5528 57.7547 90.7764 57.7058 90.9931ZM57.7058 90.9931C57.7128 91 57.7128 91.014 57.7128 91.021H57.7198C57.7268 91.021 57.7268 91.014 57.7268 91.014C57.7757 90.7834 57.8246 90.5528 57.8666 90.3221C57.8037 90.5528 57.7547 90.7764 57.7058 90.9931Z" fill="#FFC005"/>
<path d="M37.9813 61.3262C41.0776 61.3262 44.0831 61.6546 46.9488 62.2766C49.8075 62.8916 52.5194 63.8002 55.0496 64.9533C56.1889 67.4623 57.0905 70.1529 57.7056 72.9834C58.3347 75.8697 58.6702 78.9028 58.6702 82.0198C58.6702 84.8781 58.3906 87.6527 57.8594 90.3154C57.8594 90.3224 57.8524 90.3293 57.8524 90.3293C57.8035 90.553 57.7475 90.7696 57.6986 90.9933C57.6497 90.7696 57.6008 90.553 57.5448 90.3293C57.5868 90.56 57.6357 90.7906 57.6846 91.0212C50.1919 89.3929 43.6637 85.7797 38.9598 80.9086C34.1371 76.2051 30.5725 69.7266 28.9579 62.2906H28.9649C28.9789 62.2836 28.9928 62.2836 29.0068 62.2836C31.8725 61.6546 34.885 61.3262 37.9813 61.3262Z" fill="#FF733B"/>
<path d="M57.859 90.3293C57.8171 90.56 57.7681 90.7906 57.7192 91.0212C57.7192 91.0212 57.7192 91.0282 57.7122 91.0282H57.7052C57.7052 91.0212 57.7052 91.0073 57.6982 91.0003C57.7542 90.7766 57.8031 90.553 57.859 90.3293Z" fill="#FFC005"/>
<path d="M28.9576 62.2906C28.3355 65.163 28 68.1821 28 71.2921C28 77.4771 29.314 83.2917 31.6275 88.3586C36.6949 90.6648 42.5102 91.9857 48.6958 91.9857C51.8062 91.9857 54.8256 91.6502 57.7053 91.0283C57.6983 91.0283 57.6983 91.0213 57.6983 91.0213C50.2056 89.3929 43.6774 85.7797 38.9735 80.9086C34.1507 76.2052 30.5861 69.7266 28.9715 62.2906H28.9576Z" fill="#7188FF"/>
</svg>
