<svg width="120" height="120" viewBox="0 0 120 120" fill="none" xmlns="http://www.w3.org/2000/svg">
<rect width="120" height="120" rx="15" fill="#00AC47" fill-opacity="0.1"/>
<path d="M68.7254 68.7186C66.8925 72.7856 63.8284 76.1748 60.0035 78.4019C56.8564 80.2418 53.2044 81.2862 49.2965 81.2862C46.1909 81.2862 43.2375 80.6222 40.5745 79.4187C33.3328 76.1748 28.249 69.0022 28.0069 60.6192C28 60.4117 28 60.2111 28 60.0036C28 59.7961 28 59.5886 28.0069 59.388C28.2421 51.005 33.3328 43.8324 40.5676 40.5815C39.371 43.2445 38.707 46.191 38.707 49.2966C38.707 53.1976 39.7584 56.8565 41.5913 60.0036C43.8185 63.8285 47.2076 66.8926 51.2746 68.7186C53.9376 69.9152 56.8841 70.5792 59.9966 70.5792C63.1091 70.5792 66.0625 69.9152 68.7254 68.7186Z" fill="url(#paint0_linear_1_109)"/>
<path d="M91.9987 60.0036C91.9987 60.2111 91.9987 60.4186 91.9918 60.6192C91.7566 69.0022 86.666 76.1748 79.438 79.4256C80.6346 76.7627 81.2986 73.8093 81.2986 70.7037C81.2986 66.8027 80.2473 63.1438 78.4143 59.9967C76.1872 56.1718 72.798 53.1008 68.731 51.2748C66.0681 50.0782 63.1216 49.4142 60.009 49.4142C56.8965 49.4142 53.95 50.0782 51.2871 51.2748C53.1131 47.2078 56.1841 43.8255 60.0021 41.5914C63.1492 39.7516 66.8012 38.7072 70.7092 38.7072C73.8217 38.7072 76.7751 39.3712 79.438 40.5747C86.666 43.8255 91.7566 50.9981 91.9918 59.3811C91.9918 59.5886 91.9987 59.7961 91.9987 60.0036Z" fill="url(#paint1_linear_1_109)"/>
<path d="M79.4325 40.5745C76.7695 39.3779 73.8161 38.707 70.7036 38.707C66.8026 38.707 63.1437 39.7584 59.9966 41.5913C56.1717 43.8184 53.1076 47.2076 51.2816 51.2746C50.085 53.9375 49.4141 56.891 49.4141 59.9966C49.4141 63.1021 50.0781 66.0556 51.2746 68.7116C47.2076 66.8856 43.8254 63.8146 41.5913 59.9966C39.7515 56.8495 38.707 53.1975 38.707 49.2895C38.707 46.184 39.371 43.2305 40.5676 40.5745C43.8185 33.3397 50.998 28.249 59.381 28.0069C59.5885 28 59.796 28 60.0035 28C60.211 28 60.4185 28 60.6191 28.0069C69.009 28.249 76.1816 33.3397 79.4325 40.5745Z" fill="url(#paint2_linear_1_109)"/>
<path d="M59.3817 91.9862C50.9987 91.751 43.8192 86.6604 40.5684 79.4255C43.2313 80.6221 46.1778 81.293 49.2903 81.293C53.1913 81.293 56.8502 80.2417 59.9973 78.4088C63.8222 76.1816 66.8933 72.7924 68.7193 68.7254C69.9158 66.0625 70.5798 63.116 70.5798 60.0104C70.5798 56.9048 69.9158 53.9445 68.7193 51.2885C72.7863 53.1145 76.1754 56.1855 78.4026 60.0104C80.2425 63.1575 81.2869 66.8095 81.2869 70.7174C81.2869 73.823 80.6229 76.7764 79.4263 79.4393C76.1754 86.6742 68.9959 91.7649 60.6129 92" fill="url(#paint3_linear_1_109)"/>
<defs>
<linearGradient id="paint0_linear_1_109" x1="34.694" y1="52.4745" x2="55.9677" y2="77.1327" gradientUnits="userSpaceOnUse">
<stop stop-color="#93D8DE"/>
<stop offset="1" stop-color="#65C8D0"/>
</linearGradient>
<linearGradient id="paint1_linear_1_109" x1="85.8383" y1="65.231" x2="69.3994" y2="49.7592" gradientUnits="userSpaceOnUse">
<stop stop-color="#93D8DE"/>
<stop offset="1" stop-color="#65C8D0"/>
</linearGradient>
<linearGradient id="paint2_linear_1_109" x1="38.7085" y1="48.3594" x2="79.433" y2="48.3594" gradientUnits="userSpaceOnUse">
<stop stop-color="#221ECA"/>
<stop offset="1" stop-color="#6461DA"/>
</linearGradient>
<linearGradient id="paint3_linear_1_109" x1="75.6969" y1="53.6656" x2="54.9066" y2="87.9938" gradientUnits="userSpaceOnUse">
<stop stop-color="#221ECA"/>
<stop offset="1" stop-color="#6461DA"/>
</linearGradient>
</defs>
</svg>
